<svg xmlns="http://www.w3.org/2000/svg" viewBox="0 0 200 200">
  <path d="M42,105 Q30,70 55,35 Q78,12 100,12 Q122,12 145,35 Q170,70 158,105 Q160,85 152,55 Q138,20 100,20 Q62,20 48,55 Q40,85 42,105 Z" fill="#4a2e15" opacity="0.85"/>
  <path d="M85,60 Q82,95 85,135 Q88,165 92,178 Q95,185 98,180 Q100,175 102,180 Q105,185 108,178 Q112,165 115,135 Q118,95 115,60" fill="#3d2310" opacity="0.85"/>
  <path d="M82,80 Q78,115 80,148 Q82,168 85,178 Q88,185 90,178 Q92,168 90,148 Q88,115 85,80" fill="#2d1a0e" opacity="0.85"/>
  <path d="M118,80 Q122,115 120,148 Q118,168 115,178 Q112,185 110,178 Q108,168 110,148 Q112,115 115,80" fill="#2d1a0e" opacity="0.85"/>
  <path d="M78,90 Q82,125 85,155 Q88,175 90,182 Q92,188 94,182 Q96,175 94,155 Q92,125 88,90" fill="#1a0f05" opacity="0.85"/>
  <path d="M122,90 Q118,125 115,155 Q112,175 110,182 Q108,188 106,182 Q104,175 106,155 Q108,125 112,90" fill="#1a0f05" opacity="0.85"/>
  <path d="M88,55 Q92,50 100,50 Q108,50 112,55" stroke="#5c3a1e" stroke-width="2" fill="none" opacity="0.6"/>
  <ellipse cx="100" cy="58" rx="8" ry="5" fill="#5c3a1e" opacity="0.7"/>
</svg>
